<?xml version="1.0" encoding="UTF-8"?>
<svg xmlns="http://www.w3.org/2000/svg" width="207" height="75" fill="none" viewBox="0 0 207 75" role="img" aria-label="Logo principal con sello del Gobierno de México">
  <defs>
    <clipPath id="a">
      <path fill="#fff" d="M0 0h207v75H0z"/>
    </clipPath>
  </defs>

  <g clip-path="url(#a)">

    <!-- IMAGEN: He colocado aquí la imagen que me diste para reemplazar el texto "Gobierno de México".
         Reemplaza el valor de href por la ruta/URL o nombre de archivo que elijas (ej. "gobierno_mexico.png").
         Si guardas la imagen subida desde el chat en la misma carpeta que este SVG, nómbrala: gobierno_mexico.png -->
    <image href="gobierno_mexico.png" x="8" y="7" width="132.47" height="48"
           preserveAspectRatio="xMinYMin meet"
           role="img" aria-label="Sello Gobierno de México" />

    <!-- Grupo de letras blancas (texto vectorial del logo principal).
         No contiene el texto "Gobierno de México" — ese texto fue reemplazado por la imagen anterior. -->
    <g id="letters" transform="translate(0,0) scale(1,1)">
      <path fill="#fff" d="M89.562 23.304c-.07-4.124 3.105-7.63 7.452-6.668.62.138.966.275 1.518.275s1.173-.206 1.518.206c.414.482.483 1.444.69 2.063.069.412.276.962 0 1.237-.69.619-1.38-.894-1.863-1.306-.966-1.031-2.346-1.65-3.726-1.237-2.553.618-3.312 4.262-2.622 6.668.552 2.475 2.967 4.468 5.382 3.23 1.242-.55 1.173-2.13.966-3.299-.138-.619-.621-.756-1.104-1.169-.138-.137-.276-.343-.207-.55.414-.48 1.242-.343 1.863-.343.69 0 1.587-.138 2.139.137.69.344 0 1.169 0 1.788-.207 1.375-.069 1.237-.069 2.268-.138 1.581-2.001 2.406-3.381 2.887-4.485 1.788-8.556-1.718-8.487-6.255l-.07.068Zm19.32-3.368c2.622 0 4.899 1.856 4.899 5.225 0 3.368-2.139 4.743-4.761 4.743-2.622 0-4.83-2.062-4.83-4.88 0-2.82 2.001-5.02 4.692-5.02v-.068Zm-2.277 4.262c0 .825.138 1.925.552 2.75.552 1.031 1.38 1.512 2.139 1.512 1.104 0 2.139-.825 2.139-2.75 0-1.924-.276-2.13-.69-2.956-.552-1.03-1.311-1.58-2.139-1.58-1.104 0-2.07.962-2.07 3.024h.069Zm18.078-3.093c-1.035-1.306-3.036-1.513-4.416-.619-.552.275-.828.688-1.104.825-.138.069-.207.069-.276 0-.207-.962 0-1.994-.069-2.956 0-.688.207-1.512 0-2.131-.345-.894-1.38-.275-2.001 0-.069 0-.345.137-.414.206-1.38.619-.483.963 0 1.788.069.206.069.343.069.55v10.999c0 .137.069.206.207.206h1.863c.138 0 .207-.069.207-.206v-.275c1.656.756 2.622.618 3.243.48 1.932-.343 3.381-1.855 3.588-4.399.138-1.512-.069-3.23-1.035-4.4l.138-.068Zm-4.416 7.287c-1.242-.619-1.38-2.338-1.38-3.506 0-1.1.276-2.269 1.104-2.956.759-.619 2.001-.55 2.622.343 1.311 1.857.828 7.219-2.346 6.119Zm10.902-4.744v2.956c0 .619 0 1.1.207 1.581.207.482.966 1.1.138 1.513-.552.206-.897 0-1.518.068-.483 0-2.277.275-1.863-.687.207-.413.276-.756.483-1.169.207-.618.069-1.443.138-2.2 0-.962.138-2.405-.138-3.162-.276-.687-1.518-1.237-.207-1.787.621-.275 1.311-.55 2.001-.756 1.173-.138.897.962.828 1.787v1.787l-.069.07Zm-.897-7.63c.621 0 1.173.48 1.173 1.1 0 1.03-1.173 1.856-2.208 1.718-.759-.069-1.035-.962-.69-1.581.276-.688 1.035-1.237 1.725-1.237Zm6.693 9.486c-.207 0-.276 0-.276.207 0 .825.759 2.406 2.691 2.406s2.346-.688 2.829-1.513c.138-.137.207-.275.345-.275.138 0 .276.138.276.482 0 1.168-1.38 3.093-4.071 3.093s-4.623-1.994-4.623-4.743c0-2.75 1.932-5.225 4.83-5.225s3.657 1.719 3.657 3.437c0 1.719-.276.963-.69 1.169-1.104.687-3.657.894-5.037.962h.069Zm1.794-4.33c-1.311 0-2.346 1.374-2.346 2.75 0 1.374.069.48.345.48.69 0 2.691-.275 3.45-.756a.721.721 0 0 0 .345-.619c0-1.03-.759-1.856-1.725-1.856h-.069Zm9.384 2.612v2.406c0 .825 0 .962.138 1.581.138.55.207.55.483.894.276.343.276.412.276.618 0 .344-.345.55-.621.55h-2.415c-1.587-.206-.552-1.168-.276-1.924.138-.482.069-.757.138-1.444V24.06c0-.619.138-1.444-.207-1.856-.138-.206-.414-.413-.552-.688-.207-.48.414-.756.828-.962.414-.138.828-.413 1.311-.481.552-.069.828.756.966 1.1 0 .068.138.137.207.137.276-.137.414-.275.69-.55.483-.412 1.173-.687 1.794-.756 1.863-.344 2.553 2.062 1.38 3.162-.276.275-.759.413-1.104.206-.345-.274-.483-.962-.828-1.306-1.035-.756-2.07.756-2.139 1.65l-.069.069Zm16.284 3.987c.069.756 1.173 1.65-.414 1.925h-1.656c-.828 0-.897-.344-.621-1.169.276-.962.138-1.925.207-2.887 0-1.031 0-2.406-.345-3.162-.483-1.169-2.07-1.238-3.036-.482-.621.482-.897 1.238-.828 2.063v2.612c0 .481 0 .963.207 1.444.207.412.414.756.345 1.1 0 .275-.138.343-.414.412h-2.484c-.345 0-.621-.069-.69-.481 0-.413.414-.963.552-1.512.207-1.1 0-2.338.069-3.506 0-.757.138-1.72-.276-2.132-.069-.068-.138-.206-.276-.137-.897-.757.276-1.17 1.035-1.444 1.242-.55 1.38-.138 1.932.825.207.343.69-.275 1.173-.55.483-.275 1.104-.55 1.725-.619 1.656-.275 3.243.55 3.588 2.337.414 1.788 0 3.85.138 5.363l.069.137Zm-4.833-7.837c2.622 0 4.899 1.856 4.899 5.225 0 3.368-2.139 4.743-4.761 4.743-2.622 0-4.83-2.062-4.83-4.88 0-2.82 2.001-5.02 4.692-5.02v-.068Zm-2.277 4.262c0 .825.138 1.925.552 2.75.552 1.031 1.38 1.512 2.139 1.512 1.104 0 2.139-.825 2.139-2.75 0-1.924-.276-2.13-.69-2.956-.552-1.03-1.311-1.58-2.139-1.58-1.104 0-2.07.962-2.07 3.024h.069Zm-2.07 6.343c-.207 0-.276 0-.276.207 0 .825.759 2.406 2.691 2.406s2.346-.688 2.829-1.513c.138-.137.207-.275.345-.275.138 0 .276.138.276.482 0 1.168-1.38 3.093-4.071 3.093s-4.623-1.994-4.623-4.743c0-2.75 1.932-5.225 4.83-5.225s3.657 1.719 3.657 3.437c0 1.719-.276.963-.69 1.169-1.104.687-3.657.894-5.037.962h.069Z"/>
    </g>

    <!-- Si necesitas que la imagen esté embebida como data URI (base64) en lugar de href a un archivo,
         sube el PNG/SVG y te devuelvo la versión con data:image/... lista. -->
  </g>
</svg>
